<mxfile host="app.diagrams.net" modified="2021-10-24T13:00:19.421Z" agent="5.0 (Macintosh; Intel Mac OS X 10_15_7) AppleWebKit/537.36 (KHTML, like Gecko) Chrome/95.0.4638.54 Safari/537.36" etag="5y1j7ZOxHB-Gr1gwPqyn" version="15.5.9" type="github">
  <diagram name="Page-1" id="b5b7bab2-c9e2-2cf4-8b2a-24fd1a2a6d21">
    <mxGraphModel dx="1577" dy="1077" grid="1" gridSize="10" guides="1" tooltips="1" connect="1" arrows="1" fold="1" page="1" pageScale="1" pageWidth="827" pageHeight="1169" background="none" math="0" shadow="0">
      <root>
        <mxCell id="0" />
        <mxCell id="1" parent="0" />
        <mxCell id="6e0c8c40b5770093-19" value="" style="group" parent="1" vertex="1" connectable="0">
          <mxGeometry x="150" y="500" width="420" height="180" as="geometry" />
        </mxCell>
        <mxCell id="6e0c8c40b5770093-20" value="" style="shape=folder;fontStyle=1;spacingTop=10;tabWidth=123;tabHeight=24;tabPosition=left;html=1;rounded=0;shadow=0;comic=0;labelBackgroundColor=none;strokeWidth=1;fontFamily=Verdana;fontSize=10;align=center;" parent="6e0c8c40b5770093-19" vertex="1">
          <mxGeometry width="420" height="180" as="geometry" />
        </mxCell>
        <mxCell id="6e0c8c40b5770093-22" value="User&lt;br&gt;Controller" style="shape=folder;fontStyle=1;spacingTop=10;tabWidth=50;tabHeight=17;tabPosition=left;html=1;rounded=0;shadow=0;comic=0;labelBackgroundColor=none;strokeWidth=1;fontFamily=Verdana;fontSize=10;align=center;" parent="6e0c8c40b5770093-19" vertex="1">
          <mxGeometry x="19.534883720930235" y="47.5" width="97.67441860465117" height="85" as="geometry" />
        </mxCell>
        <mxCell id="6e0c8c40b5770093-23" value="Assignment&lt;br&gt;Controller" style="shape=folder;fontStyle=1;spacingTop=10;tabWidth=50;tabHeight=17;tabPosition=left;html=1;rounded=0;shadow=0;comic=0;labelBackgroundColor=none;strokeWidth=1;fontFamily=Verdana;fontSize=10;align=center;" parent="6e0c8c40b5770093-19" vertex="1">
          <mxGeometry x="146.51162790697674" y="50" width="97.67441860465117" height="80" as="geometry" />
        </mxCell>
        <mxCell id="lO8TMP3qDQRckc2Fhmde-29" value="Appointment&lt;br&gt;Controller" style="shape=folder;fontStyle=1;spacingTop=10;tabWidth=50;tabHeight=17;tabPosition=left;html=1;rounded=0;shadow=0;comic=0;labelBackgroundColor=none;strokeWidth=1;fontFamily=Verdana;fontSize=10;align=center;" vertex="1" parent="6e0c8c40b5770093-19">
          <mxGeometry x="273.48837209302326" y="50" width="97.67441860465117" height="80" as="geometry" />
        </mxCell>
        <mxCell id="lO8TMP3qDQRckc2Fhmde-47" style="edgeStyle=orthogonalEdgeStyle;rounded=0;orthogonalLoop=1;jettySize=auto;html=1;exitX=0;exitY=0;exitDx=230;exitDy=387;exitPerimeter=0;entryX=0;entryY=0.5;entryDx=0;entryDy=0;" edge="1" parent="1" source="6e0c8c40b5770093-25" target="lO8TMP3qDQRckc2Fhmde-44">
          <mxGeometry relative="1" as="geometry" />
        </mxCell>
        <mxCell id="6e0c8c40b5770093-25" value="" style="shape=folder;fontStyle=1;spacingTop=10;tabWidth=123;tabHeight=24;tabPosition=left;html=1;rounded=0;shadow=0;comic=0;labelBackgroundColor=none;strokeWidth=1;fontFamily=Verdana;fontSize=10;align=center;" parent="1" vertex="1">
          <mxGeometry x="700" y="240" width="230" height="750" as="geometry" />
        </mxCell>
        <mxCell id="6e0c8c40b5770093-27" value="User&lt;br&gt;Repository" style="shape=folder;fontStyle=1;spacingTop=10;tabWidth=50;tabHeight=17;tabPosition=left;html=1;rounded=0;shadow=0;comic=0;labelBackgroundColor=none;strokeWidth=1;fontFamily=Verdana;fontSize=10;align=center;" parent="1" vertex="1">
          <mxGeometry x="759" y="285.49545454545455" width="112" height="89.0909090909091" as="geometry" />
        </mxCell>
        <mxCell id="6e0c8c40b5770093-31" value="Questionnaire&lt;br&gt;Repository" style="shape=folder;fontStyle=1;spacingTop=10;tabWidth=50;tabHeight=17;tabPosition=left;html=1;rounded=0;shadow=0;comic=0;labelBackgroundColor=none;strokeWidth=1;fontFamily=Verdana;fontSize=10;align=center;" parent="1" vertex="1">
          <mxGeometry x="759" y="385.4963636363637" width="112" height="89.0909090909091" as="geometry" />
        </mxCell>
        <mxCell id="6e0c8c40b5770093-28" value="Answer&lt;br&gt;Repository" style="shape=folder;fontStyle=1;spacingTop=10;tabWidth=50;tabHeight=17;tabPosition=left;html=1;rounded=0;shadow=0;comic=0;labelBackgroundColor=none;strokeWidth=1;fontFamily=Verdana;fontSize=10;align=center;" parent="1" vertex="1">
          <mxGeometry x="759" y="485.5018181818182" width="112" height="89.0909090909091" as="geometry" />
        </mxCell>
        <mxCell id="lO8TMP3qDQRckc2Fhmde-1" value="Question&lt;br&gt;Repository" style="shape=folder;fontStyle=1;spacingTop=10;tabWidth=50;tabHeight=17;tabPosition=left;html=1;rounded=0;shadow=0;comic=0;labelBackgroundColor=none;strokeWidth=1;fontFamily=Verdana;fontSize=10;align=center;" vertex="1" parent="1">
          <mxGeometry x="759" y="580.9345454545455" width="112" height="89.0909090909091" as="geometry" />
        </mxCell>
        <mxCell id="lO8TMP3qDQRckc2Fhmde-2" value="Assignment&lt;br&gt;Repository" style="shape=folder;fontStyle=1;spacingTop=10;tabWidth=50;tabHeight=17;tabPosition=left;html=1;rounded=0;shadow=0;comic=0;labelBackgroundColor=none;strokeWidth=1;fontFamily=Verdana;fontSize=10;align=center;" vertex="1" parent="1">
          <mxGeometry x="759" y="680.9300000000001" width="112" height="89.0909090909091" as="geometry" />
        </mxCell>
        <mxCell id="lO8TMP3qDQRckc2Fhmde-23" value="Appointment&lt;br&gt;Repository" style="shape=folder;fontStyle=1;spacingTop=10;tabWidth=50;tabHeight=17;tabPosition=left;html=1;rounded=0;shadow=0;comic=0;labelBackgroundColor=none;strokeWidth=1;fontFamily=Verdana;fontSize=10;align=center;" vertex="1" parent="1">
          <mxGeometry x="759" y="780.9300000000001" width="112" height="89.0909090909091" as="geometry" />
        </mxCell>
        <mxCell id="lO8TMP3qDQRckc2Fhmde-22" value="Notification&lt;br&gt;Repository" style="shape=folder;fontStyle=1;spacingTop=10;tabWidth=50;tabHeight=17;tabPosition=left;html=1;rounded=0;shadow=0;comic=0;labelBackgroundColor=none;strokeWidth=1;fontFamily=Verdana;fontSize=10;align=center;" vertex="1" parent="1">
          <mxGeometry x="759" y="880.9300000000001" width="112" height="89.0909090909091" as="geometry" />
        </mxCell>
        <mxCell id="lO8TMP3qDQRckc2Fhmde-44" value="&lt;b&gt;Database&lt;/b&gt;" style="html=1;" vertex="1" parent="1">
          <mxGeometry x="1020" y="595.48" width="110" height="60" as="geometry" />
        </mxCell>
        <mxCell id="lO8TMP3qDQRckc2Fhmde-42" style="edgeStyle=orthogonalEdgeStyle;rounded=0;orthogonalLoop=1;jettySize=auto;html=1;exitX=0;exitY=0;exitDx=400;exitDy=132;exitPerimeter=0;" edge="1" parent="1" source="6e0c8c40b5770093-33">
          <mxGeometry relative="1" as="geometry">
            <mxPoint x="700" y="881.3333333333335" as="targetPoint" />
          </mxGeometry>
        </mxCell>
        <mxCell id="6e0c8c40b5770093-33" value="" style="shape=folder;fontStyle=1;spacingTop=10;tabWidth=123;tabHeight=24;tabPosition=left;html=1;rounded=0;shadow=0;comic=0;labelBackgroundColor=none;strokeColor=#000000;strokeWidth=1;fillColor=#ffffff;fontFamily=Verdana;fontSize=10;fontColor=#000000;align=center;" parent="1" vertex="1">
          <mxGeometry x="160" y="750" width="400" height="240" as="geometry" />
        </mxCell>
        <mxCell id="6e0c8c40b5770093-42" value="Notification&lt;br&gt;Service" style="shape=folder;fontStyle=1;spacingTop=10;tabWidth=50;tabHeight=17;tabPosition=left;html=1;rounded=0;shadow=0;comic=0;labelBackgroundColor=none;strokeColor=#000000;strokeWidth=1;fillColor=#ffffff;fontFamily=Verdana;fontSize=10;fontColor=#000000;align=center;" parent="1" vertex="1">
          <mxGeometry x="209.5" y="785" width="112" height="70" as="geometry" />
        </mxCell>
        <mxCell id="6e0c8c40b5770093-43" value="User&lt;br&gt;Service" style="shape=folder;fontStyle=1;spacingTop=10;tabWidth=50;tabHeight=17;tabPosition=left;html=1;rounded=0;shadow=0;comic=0;labelBackgroundColor=none;strokeColor=#000000;strokeWidth=1;fillColor=#ffffff;fontFamily=Verdana;fontSize=10;fontColor=#000000;align=center;" parent="1" vertex="1">
          <mxGeometry x="209.5" y="889.5" width="112" height="70" as="geometry" />
        </mxCell>
        <mxCell id="6e0c8c40b5770093-44" value="Assignment&lt;br&gt;Service" style="shape=folder;fontStyle=1;spacingTop=10;tabWidth=50;tabHeight=17;tabPosition=left;html=1;rounded=0;shadow=0;comic=0;labelBackgroundColor=none;strokeColor=#000000;strokeWidth=1;fillColor=#ffffff;fontFamily=Verdana;fontSize=10;fontColor=#000000;align=center;" parent="1" vertex="1">
          <mxGeometry x="373.5" y="889.5" width="112" height="70" as="geometry" />
        </mxCell>
        <mxCell id="6e0c8c40b5770093-45" value="Appointment&lt;br&gt;Service" style="shape=folder;fontStyle=1;spacingTop=10;tabWidth=50;tabHeight=17;tabPosition=left;html=1;rounded=0;shadow=0;comic=0;labelBackgroundColor=none;strokeColor=#000000;strokeWidth=1;fillColor=#ffffff;fontFamily=Verdana;fontSize=10;fontColor=#000000;align=center;" parent="1" vertex="1">
          <mxGeometry x="373.5" y="785" width="112" height="70" as="geometry" />
        </mxCell>
        <mxCell id="lO8TMP3qDQRckc2Fhmde-30" style="edgeStyle=orthogonalEdgeStyle;rounded=0;orthogonalLoop=1;jettySize=auto;html=1;exitX=0.5;exitY=1;exitDx=0;exitDy=0;exitPerimeter=0;entryX=0.499;entryY=0.075;entryDx=0;entryDy=0;entryPerimeter=0;" edge="1" parent="1" source="6e0c8c40b5770093-20" target="6e0c8c40b5770093-33">
          <mxGeometry relative="1" as="geometry" />
        </mxCell>
        <mxCell id="lO8TMP3qDQRckc2Fhmde-33" style="edgeStyle=orthogonalEdgeStyle;rounded=0;orthogonalLoop=1;jettySize=auto;html=1;" edge="1" parent="1" source="lO8TMP3qDQRckc2Fhmde-32">
          <mxGeometry relative="1" as="geometry">
            <mxPoint x="355" y="520" as="targetPoint" />
          </mxGeometry>
        </mxCell>
        <mxCell id="lO8TMP3qDQRckc2Fhmde-40" style="edgeStyle=orthogonalEdgeStyle;rounded=0;orthogonalLoop=1;jettySize=auto;html=1;entryX=1;entryY=0.5;entryDx=0;entryDy=0;" edge="1" parent="1" source="lO8TMP3qDQRckc2Fhmde-32">
          <mxGeometry relative="1" as="geometry">
            <mxPoint x="159.99999999999977" y="410" as="targetPoint" />
          </mxGeometry>
        </mxCell>
        <mxCell id="lO8TMP3qDQRckc2Fhmde-32" value="&lt;b&gt;AuthInterceptor&lt;/b&gt;" style="html=1;" vertex="1" parent="1">
          <mxGeometry x="300" y="380" width="110" height="60" as="geometry" />
        </mxCell>
        <mxCell id="lO8TMP3qDQRckc2Fhmde-35" style="edgeStyle=orthogonalEdgeStyle;rounded=0;orthogonalLoop=1;jettySize=auto;html=1;entryX=0.5;entryY=0;entryDx=0;entryDy=0;" edge="1" parent="1" source="lO8TMP3qDQRckc2Fhmde-34" target="lO8TMP3qDQRckc2Fhmde-32">
          <mxGeometry relative="1" as="geometry" />
        </mxCell>
        <mxCell id="lO8TMP3qDQRckc2Fhmde-34" value="" style="shape=umlActor;verticalLabelPosition=bottom;verticalAlign=top;html=1;" vertex="1" parent="1">
          <mxGeometry x="340" y="190" width="30" height="60" as="geometry" />
        </mxCell>
        <mxCell id="lO8TMP3qDQRckc2Fhmde-39" style="edgeStyle=orthogonalEdgeStyle;rounded=0;orthogonalLoop=1;jettySize=auto;html=1;entryX=0;entryY=0.5;entryDx=0;entryDy=0;" edge="1" parent="1" target="lO8TMP3qDQRckc2Fhmde-32">
          <mxGeometry relative="1" as="geometry">
            <mxPoint x="159.99999999999977" y="410" as="sourcePoint" />
          </mxGeometry>
        </mxCell>
        <mxCell id="lO8TMP3qDQRckc2Fhmde-43" style="edgeStyle=orthogonalEdgeStyle;rounded=0;orthogonalLoop=1;jettySize=auto;html=1;exitX=0;exitY=0;exitDx=0;exitDy=568.5;exitPerimeter=0;entryX=1.003;entryY=0.242;entryDx=0;entryDy=0;entryPerimeter=0;" edge="1" parent="1" source="6e0c8c40b5770093-25" target="6e0c8c40b5770093-33">
          <mxGeometry relative="1" as="geometry" />
        </mxCell>
        <mxCell id="lO8TMP3qDQRckc2Fhmde-51" value="" style="edgeStyle=orthogonalEdgeStyle;rounded=0;orthogonalLoop=1;jettySize=auto;html=1;" edge="1" parent="1" source="lO8TMP3qDQRckc2Fhmde-49">
          <mxGeometry relative="1" as="geometry">
            <mxPoint x="430" y="970" as="targetPoint" />
          </mxGeometry>
        </mxCell>
        <mxCell id="lO8TMP3qDQRckc2Fhmde-49" value="&lt;b&gt;Assignment&lt;br&gt;Schedule&lt;/b&gt;" style="html=1;" vertex="1" parent="1">
          <mxGeometry x="300" y="1060" width="110" height="50" as="geometry" />
        </mxCell>
        <mxCell id="lO8TMP3qDQRckc2Fhmde-50" value="Notification&lt;br&gt;Service" style="shape=folder;fontStyle=1;spacingTop=10;tabWidth=50;tabHeight=17;tabPosition=left;html=1;rounded=0;shadow=0;comic=0;labelBackgroundColor=none;strokeColor=#000000;strokeWidth=1;fillColor=#ffffff;fontFamily=Verdana;fontSize=10;fontColor=#000000;align=center;" vertex="1" parent="1">
          <mxGeometry x="219.5" y="795" width="112" height="70" as="geometry" />
        </mxCell>
        <mxCell id="lO8TMP3qDQRckc2Fhmde-57" value="AuthService" style="shape=folder;fontStyle=1;spacingTop=10;tabWidth=50;tabHeight=17;tabPosition=left;html=1;rounded=0;shadow=0;comic=0;labelBackgroundColor=none;strokeWidth=1;fontFamily=Verdana;fontSize=10;align=center;" vertex="1" parent="1">
          <mxGeometry x="62.32488372093023" y="360" width="97.67441860465117" height="85" as="geometry" />
        </mxCell>
      </root>
    </mxGraphModel>
  </diagram>
</mxfile>
